<?xml version="1.0" encoding="UTF-8" standalone="no"?>
<!-- Created with Inkscape (http://www.inkscape.org/) -->

<svg
   xmlns:dc="http://purl.org/dc/elements/1.1/"
   xmlns:cc="http://creativecommons.org/ns#"
   xmlns:rdf="http://www.w3.org/1999/02/22-rdf-syntax-ns#"
   xmlns:svg="http://www.w3.org/2000/svg"
   xmlns="http://www.w3.org/2000/svg"
   xmlns:xlink="http://www.w3.org/1999/xlink"
   xmlns:sodipodi="http://sodipodi.sourceforge.net/DTD/sodipodi-0.dtd"
   xmlns:inkscape="http://www.inkscape.org/namespaces/inkscape"
   version="1.1"
   width="240"
   height="240"
   id="svg11300"
   inkscape:version="0.48.1 r9760"
   sodipodi:docname="udev-discover-device-pci.svg"
   inkscape:export-filename="/home/zyv/Dropbox/Devel/udev-discover/udev-discover_logo.png"
   inkscape:export-xdpi="68"
   inkscape:export-ydpi="68">
  <metadata
     id="metadata7344">
    <rdf:RDF>
      <cc:Work
         rdf:about="">
        <dc:format>image/svg+xml</dc:format>
        <dc:type
           rdf:resource="http://purl.org/dc/dcmitype/StillImage" />
        <dc:title></dc:title>
      </cc:Work>
    </rdf:RDF>
  </metadata>
  <sodipodi:namedview
     pagecolor="#ffffff"
     bordercolor="#666666"
     borderopacity="1"
     objecttolerance="10"
     gridtolerance="10"
     guidetolerance="10"
     inkscape:pageopacity="0"
     inkscape:pageshadow="2"
     inkscape:window-width="1280"
     inkscape:window-height="977"
     id="namedview7342"
     showgrid="false"
     inkscape:zoom="1.6354167"
     inkscape:cx="103.70104"
     inkscape:cy="41.688962"
     inkscape:window-x="0"
     inkscape:window-y="26"
     inkscape:window-maximized="1"
     inkscape:current-layer="svg11300" />
  <defs
     id="defs3">
    <linearGradient
       id="linearGradient4909">
      <stop
         id="stop4911"
         style="stop-color:#747474;stop-opacity:1"
         offset="0" />
      <stop
         id="stop4913"
         style="stop-color:#b0b0b0;stop-opacity:1"
         offset="0.47842374" />
      <stop
         id="stop4915"
         style="stop-color:#3f3f3f;stop-opacity:1"
         offset="1" />
    </linearGradient>
    <linearGradient
       id="linearGradient4877">
      <stop
         id="stop4879"
         style="stop-color:#747474;stop-opacity:1"
         offset="0" />
      <stop
         id="stop4881"
         style="stop-color:white;stop-opacity:1"
         offset="0.45348784" />
      <stop
         id="stop4883"
         style="stop-color:#3f3f3f;stop-opacity:1"
         offset="1" />
    </linearGradient>
    <linearGradient
       id="linearGradient7622">
      <stop
         id="stop7624"
         style="stop-color:white;stop-opacity:1"
         offset="0" />
      <stop
         id="stop7626"
         style="stop-color:white;stop-opacity:0"
         offset="1" />
    </linearGradient>
    <linearGradient
       id="linearGradient14973">
      <stop
         id="stop14975"
         style="stop-color:#747474;stop-opacity:1"
         offset="0" />
      <stop
         id="stop14977"
         style="stop-color:#b0b0b0;stop-opacity:1"
         offset="0.62068963" />
      <stop
         id="stop14979"
         style="stop-color:#3f3f3f;stop-opacity:1"
         offset="1" />
    </linearGradient>
    <linearGradient
       id="linearGradient14861">
      <stop
         id="stop14863"
         style="stop-color:white;stop-opacity:1"
         offset="0" />
      <stop
         id="stop14865"
         style="stop-color:white;stop-opacity:0"
         offset="1" />
    </linearGradient>
    <linearGradient
       id="linearGradient6215">
      <stop
         id="stop6217"
         style="stop-color:#cfb900;stop-opacity:1"
         offset="0" />
      <stop
         id="stop6219"
         style="stop-color:#e2d44d;stop-opacity:1"
         offset="0.20999999" />
      <stop
         id="stop6221"
         style="stop-color:#9a8b00;stop-opacity:1"
         offset="0.83999997" />
      <stop
         id="stop6223"
         style="stop-color:#cfb900;stop-opacity:1"
         offset="1" />
    </linearGradient>
    <linearGradient
       id="linearGradient3437">
      <stop
         id="stop3439"
         style="stop-color:black;stop-opacity:1"
         offset="0" />
      <stop
         id="stop3441"
         style="stop-color:black;stop-opacity:0"
         offset="1" />
    </linearGradient>
    <linearGradient
       id="linearGradient14780-7">
      <stop
         id="stop14782-0"
         style="stop-color:#d3ba00;stop-opacity:1"
         offset="0" />
      <stop
         id="stop14784-4"
         style="stop-color:#d3ba00;stop-opacity:0"
         offset="1" />
    </linearGradient>
    <linearGradient
       id="linearGradient14981-4">
      <stop
         id="stop14983-1"
         style="stop-color:#628430;stop-opacity:1"
         offset="0" />
      <stop
         id="stop14985-7"
         style="stop-color:#364d17;stop-opacity:1"
         offset="1" />
    </linearGradient>
    <linearGradient
       id="linearGradient7067-5">
      <stop
         id="stop7069-9"
         style="stop-color:white;stop-opacity:1"
         offset="0" />
      <stop
         id="stop7071-3"
         style="stop-color:white;stop-opacity:0"
         offset="1" />
    </linearGradient>
    <linearGradient
       id="linearGradient2372-9">
      <stop
         id="stop2374-9"
         style="stop-color:white;stop-opacity:1"
         offset="0" />
      <stop
         id="stop2376-4"
         style="stop-color:white;stop-opacity:0.34482759"
         offset="1" />
    </linearGradient>
    <linearGradient
       id="linearGradient3668-5">
      <stop
         id="stop3670-7"
         style="stop-color:white;stop-opacity:1"
         offset="0" />
      <stop
         id="stop3672-4"
         style="stop-color:white;stop-opacity:0"
         offset="1" />
    </linearGradient>
    <radialGradient
       cx="17.058823"
       cy="41.058823"
       r="5.7384715"
       fx="14.68769"
       fy="37.45607"
       id="radialGradient3290"
       xlink:href="#linearGradient7067-5"
       gradientUnits="userSpaceOnUse"
       gradientTransform="matrix(0.68315419,-0.12185712,0.02398557,0.64784268,14.798649,80.829918)" />
    <linearGradient
       x1="28.503141"
       y1="137.53885"
       x2="26.256771"
       y2="125.39074"
       id="linearGradient3293"
       xlink:href="#linearGradient2372-9"
       gradientUnits="userSpaceOnUse"
       gradientTransform="matrix(0.23013199,0,0,0.23039255,24.749521,-23.778572)" />
    <radialGradient
       cx="17.058823"
       cy="41.058823"
       r="5.7384715"
       fx="14.757765"
       fy="37.841019"
       id="radialGradient3296"
       xlink:href="#linearGradient3668-5"
       gradientUnits="userSpaceOnUse"
       gradientTransform="matrix(0.7193066,-0.11623586,0.01570024,0.6700801,27.047508,77.863823)" />
    <linearGradient
       x1="28.739122"
       y1="144.11652"
       x2="26.256771"
       y2="125.39074"
       id="linearGradient3299"
       xlink:href="#linearGradient2372-9"
       gradientUnits="userSpaceOnUse"
       gradientTransform="matrix(0.31763863,0,0,0.23039255,35.626256,54.117604)" />
    <radialGradient
       cx="24.45439"
       cy="46.869949"
       r="19.61445"
       fx="24.45439"
       fy="46.869949"
       id="radialGradient2951"
       xlink:href="#linearGradient3437"
       gradientUnits="userSpaceOnUse"
       gradientTransform="matrix(0.81572503,0,0,0.12745709,3.051938,118.52609)" />
    <linearGradient
       x1="35.933823"
       y1="22.75"
       x2="51.449436"
       y2="22.75"
       id="linearGradient2957"
       xlink:href="#linearGradient4877"
       gradientUnits="userSpaceOnUse"
       gradientTransform="translate(0,83)" />
    <linearGradient
       x1="38.999687"
       y1="22.75"
       x2="47.499687"
       y2="22.75"
       id="linearGradient2960"
       xlink:href="#linearGradient14973"
       gradientUnits="userSpaceOnUse"
       gradientTransform="translate(0,83)" />
    <radialGradient
       cx="4"
       cy="9.1704912"
       r="19.000311"
       fx="4"
       fy="9.1704912"
       id="radialGradient2966"
       xlink:href="#linearGradient7622"
       gradientUnits="userSpaceOnUse"
       gradientTransform="matrix(1.9989253,0.08328855,-0.05263072,1.2631372,-3.5130513,84.083257)" />
    <linearGradient
       x1="12.647367"
       y1="11.5"
       x2="4.712738"
       y2="11.5"
       id="linearGradient2985"
       xlink:href="#linearGradient6215"
       gradientUnits="userSpaceOnUse"
       gradientTransform="matrix(0,0.66666668,-1,0,29,100.66666)" />
    <linearGradient
       x1="8"
       y1="19.5"
       x2="4.3283887"
       y2="19.5"
       id="linearGradient3010"
       xlink:href="#linearGradient6215"
       gradientUnits="userSpaceOnUse"
       gradientTransform="matrix(0,0.66666668,-1,0,29,91.666667)" />
    <linearGradient
       x1="24"
       y1="19.5"
       x2="27"
       y2="19.5"
       id="linearGradient3019"
       xlink:href="#linearGradient6215"
       gradientUnits="userSpaceOnUse"
       gradientTransform="matrix(-0.66666668,0,0,1,41,79)" />
    <linearGradient
       x1="8"
       y1="19.5"
       x2="4.3283887"
       y2="19.5"
       id="linearGradient3030"
       xlink:href="#linearGradient6215"
       gradientUnits="userSpaceOnUse"
       gradientTransform="matrix(0.66666668,0,0,1,2.6666666,79)" />
    <linearGradient
       x1="16.964844"
       y1="20.165941"
       x2="18.968426"
       y2="31.347067"
       id="linearGradient3033"
       xlink:href="#linearGradient14861"
       gradientUnits="userSpaceOnUse"
       gradientTransform="matrix(0.934742,0,0,1.14936,0.518753,75.140389)" />
    <linearGradient
       x1="6.2209711"
       y1="42.890816"
       x2="6.2376504"
       y2="39.266895"
       id="linearGradient3050"
       xlink:href="#linearGradient14780-7"
       gradientUnits="userSpaceOnUse"
       gradientTransform="matrix(1.984375,0,0,1,3.09375,78.986405)" />
    <radialGradient
       cx="9"
       cy="15.407109"
       r="19.999861"
       fx="9"
       fy="15.407109"
       id="radialGradient3058"
       xlink:href="#linearGradient14981-4"
       gradientUnits="userSpaceOnUse"
       gradientTransform="matrix(2.3160736,0.01430413,-0.01016957,1.6466216,-11.68798,75.501583)" />
    <linearGradient
       x1="42.365673"
       y1="15.04982"
       x2="42.4007"
       y2="20.018223"
       id="linearGradient3061"
       xlink:href="#linearGradient4877"
       gradientUnits="userSpaceOnUse"
       gradientTransform="matrix(1.1612985,0,0,1.1339575,-5.8594808,81.617165)" />
    <linearGradient
       x1="43.161167"
       y1="13.900771"
       x2="43.063614"
       y2="20.990494"
       id="linearGradient3063"
       xlink:href="#linearGradient4909"
       gradientUnits="userSpaceOnUse"
       gradientTransform="matrix(1.1612985,0,0,1.1339575,-5.8594808,81.617165)" />
    <linearGradient
       x1="42.365673"
       y1="15.04982"
       x2="42.4007"
       y2="20.018223"
       id="linearGradient3066"
       xlink:href="#linearGradient4877"
       gradientUnits="userSpaceOnUse"
       gradientTransform="matrix(1.1612985,0,0,1.1339575,-5.8594808,88.617165)" />
    <linearGradient
       x1="43.161167"
       y1="13.900771"
       x2="43.063614"
       y2="20.990494"
       id="linearGradient3068"
       xlink:href="#linearGradient4909"
       gradientUnits="userSpaceOnUse"
       gradientTransform="matrix(1.1612985,0,0,1.1339575,-5.8594808,88.617165)" />
    <linearGradient
       inkscape:collect="always"
       xlink:href="#linearGradient4877"
       id="linearGradient7525"
       gradientUnits="userSpaceOnUse"
       gradientTransform="matrix(1.1612985,0,0,1.1339575,-5.8594808,88.617165)"
       x1="42.365673"
       y1="15.04982"
       x2="42.4007"
       y2="20.018223" />
    <linearGradient
       inkscape:collect="always"
       xlink:href="#linearGradient4909"
       id="linearGradient7527"
       gradientUnits="userSpaceOnUse"
       gradientTransform="matrix(1.1612985,0,0,1.1339575,-5.8594808,88.617165)"
       x1="43.161167"
       y1="13.900771"
       x2="43.063614"
       y2="20.990494" />
    <linearGradient
       inkscape:collect="always"
       xlink:href="#linearGradient4877"
       id="linearGradient7529"
       gradientUnits="userSpaceOnUse"
       gradientTransform="matrix(1.1612985,0,0,1.1339575,-5.8594808,81.617165)"
       x1="42.365673"
       y1="15.04982"
       x2="42.4007"
       y2="20.018223" />
    <linearGradient
       inkscape:collect="always"
       xlink:href="#linearGradient4909"
       id="linearGradient7531"
       gradientUnits="userSpaceOnUse"
       gradientTransform="matrix(1.1612985,0,0,1.1339575,-5.8594808,81.617165)"
       x1="43.161167"
       y1="13.900771"
       x2="43.063614"
       y2="20.990494" />
    <radialGradient
       inkscape:collect="always"
       xlink:href="#linearGradient14981-4"
       id="radialGradient7533"
       gradientUnits="userSpaceOnUse"
       gradientTransform="matrix(2.3160736,0.01430413,-0.01016957,1.6466216,-11.68798,75.501583)"
       cx="9"
       cy="15.407109"
       fx="9"
       fy="15.407109"
       r="19.999861" />
    <linearGradient
       inkscape:collect="always"
       xlink:href="#linearGradient14780-7"
       id="linearGradient7535"
       gradientUnits="userSpaceOnUse"
       gradientTransform="matrix(1.984375,0,0,1,3.09375,78.986405)"
       x1="6.2209711"
       y1="42.890816"
       x2="6.2376504"
       y2="39.266895" />
    <linearGradient
       inkscape:collect="always"
       xlink:href="#linearGradient14861"
       id="linearGradient7537"
       gradientUnits="userSpaceOnUse"
       gradientTransform="matrix(0.934742,0,0,1.14936,0.518753,75.140389)"
       x1="16.964844"
       y1="20.165941"
       x2="18.968426"
       y2="31.347067" />
    <linearGradient
       inkscape:collect="always"
       xlink:href="#linearGradient6215"
       id="linearGradient7539"
       gradientUnits="userSpaceOnUse"
       gradientTransform="matrix(-0.66666668,0,0,1,41,79)"
       x1="24"
       y1="19.5"
       x2="27"
       y2="19.5" />
    <linearGradient
       inkscape:collect="always"
       xlink:href="#linearGradient6215"
       id="linearGradient7541"
       gradientUnits="userSpaceOnUse"
       gradientTransform="matrix(0,0.66666668,-1,0,29,91.666667)"
       x1="8"
       y1="19.5"
       x2="4.3283887"
       y2="19.5" />
    <linearGradient
       inkscape:collect="always"
       xlink:href="#linearGradient6215"
       id="linearGradient7543"
       gradientUnits="userSpaceOnUse"
       gradientTransform="matrix(0,0.66666668,-1,0,29,100.66666)"
       x1="12.647367"
       y1="11.5"
       x2="4.712738"
       y2="11.5" />
    <radialGradient
       inkscape:collect="always"
       xlink:href="#linearGradient7622"
       id="radialGradient7545"
       gradientUnits="userSpaceOnUse"
       gradientTransform="matrix(1.9989253,0.08328855,-0.05263072,1.2631372,-3.5130513,84.083257)"
       cx="4"
       cy="9.1704912"
       fx="4"
       fy="9.1704912"
       r="19.000311" />
    <linearGradient
       inkscape:collect="always"
       xlink:href="#linearGradient14973"
       id="linearGradient7547"
       gradientUnits="userSpaceOnUse"
       gradientTransform="translate(0,83)"
       x1="38.999687"
       y1="22.75"
       x2="47.499687"
       y2="22.75" />
    <linearGradient
       inkscape:collect="always"
       xlink:href="#linearGradient4877"
       id="linearGradient7549"
       gradientUnits="userSpaceOnUse"
       gradientTransform="translate(0,83)"
       x1="35.933823"
       y1="22.75"
       x2="51.449436"
       y2="22.75" />
    <radialGradient
       inkscape:collect="always"
       xlink:href="#linearGradient3437"
       id="radialGradient7551"
       gradientUnits="userSpaceOnUse"
       gradientTransform="matrix(0.81572503,0,0,0.12745709,3.051938,118.52609)"
       cx="24.45439"
       cy="46.869949"
       fx="24.45439"
       fy="46.869949"
       r="19.61445" />
    <linearGradient
       inkscape:collect="always"
       xlink:href="#linearGradient2372-9"
       id="linearGradient7553"
       gradientUnits="userSpaceOnUse"
       gradientTransform="matrix(0.31763863,0,0,0.23039255,35.626256,54.117604)"
       x1="28.739122"
       y1="144.11652"
       x2="26.256771"
       y2="125.39074" />
    <radialGradient
       inkscape:collect="always"
       xlink:href="#linearGradient3668-5"
       id="radialGradient7555"
       gradientUnits="userSpaceOnUse"
       gradientTransform="matrix(0.7193066,-0.11623586,0.01570024,0.6700801,27.047508,77.863823)"
       cx="17.058823"
       cy="41.058823"
       fx="14.757765"
       fy="37.841019"
       r="5.7384715" />
    <radialGradient
       inkscape:collect="always"
       xlink:href="#linearGradient7067-5"
       id="radialGradient7557"
       gradientUnits="userSpaceOnUse"
       gradientTransform="matrix(0.68315419,-0.12185712,0.02398557,0.64784268,14.798649,80.829918)"
       cx="17.058823"
       cy="41.058823"
       fx="14.68769"
       fy="37.45607"
       r="5.7384715" />
    <linearGradient
       inkscape:collect="always"
       xlink:href="#linearGradient6215"
       id="linearGradient7559"
       gradientUnits="userSpaceOnUse"
       gradientTransform="matrix(0.66666668,0,0,1,2.6666666,79)"
       x1="8"
       y1="19.5"
       x2="4.3283887"
       y2="19.5" />
  </defs>
  <g
     id="g7490"
     transform="matrix(5.161356,0,0,5.161356,-4.162524,-428.49215)">
    <rect
       style="color:#000000;fill:url(#linearGradient7525);fill-opacity:1;fill-rule:nonzero;stroke:url(#linearGradient7527);stroke-width:0.5;stroke-linecap:round;stroke-linejoin:round;stroke-miterlimit:4;stroke-opacity:1;stroke-dasharray:none;stroke-dashoffset:0;marker:none;visibility:visible;display:block;overflow:visible"
       id="rect4923"
       y="106.25"
       x="39.25"
       ry="1"
       rx="1"
       height="4.5"
       width="5.5" />
    <rect
       style="color:#000000;fill:url(#linearGradient7529);fill-opacity:1;fill-rule:nonzero;stroke:url(#linearGradient7531);stroke-width:0.5;stroke-linecap:round;stroke-linejoin:round;stroke-miterlimit:4;stroke-opacity:1;stroke-dasharray:none;stroke-dashoffset:0;marker:none;visibility:visible;display:block;overflow:visible"
       id="rect15011"
       y="99.25"
       x="39.25"
       ry="1"
       rx="1"
       height="4.5"
       width="5.5" />
    <path
       inkscape:connector-curvature="0"
       style="color:#000000;fill:url(#radialGradient7533);fill-opacity:1;fill-rule:nonzero;stroke:#28390d;stroke-width:1.00000012;stroke-linecap:butt;stroke-linejoin:miter;stroke-miterlimit:4;stroke-opacity:1;stroke-dasharray:none;stroke-dashoffset:0;marker:none;visibility:visible;display:block;overflow:visible"
       id="rect14772"
       d="m 1.5010327,92.630244 0.00391,26.719636 c 0,0.0789 0.088802,0.15021 0.1867815,0.15021 l 10.8115998,0.0156 -0.0039,4.85327 c 0,0.0713 0.0224,0.12633 0.124282,0.12677 l 18.755678,-0.008 c 0.09242,-0.004 0.124281,-0.0637 0.124281,-0.12677 l 0.0039,-4.8689 8.992438,0.008 0,-26.996615 -38.8746861,0 c -0.078447,0.0043 -0.132094,0.05255 -0.1242815,0.126769 z" />
    <path
       inkscape:connector-curvature="0"
       style="color:#000000;fill:none;stroke:#305526;stroke-width:0.5;stroke-linecap:butt;stroke-linejoin:miter;stroke-miterlimit:4;stroke-opacity:1;stroke-dasharray:none;stroke-dashoffset:0;marker:none;visibility:visible;display:block;overflow:visible"
       id="path14957"
       d="m 25,102.47223 0.06435,0.53095 2.424421,1.89215 0,4.60378 -17.058951,0 0,3.93328" />
    <path
       inkscape:connector-curvature="0"
       style="color:#000000;fill:none;stroke:#305526;stroke-width:0.5;stroke-linecap:butt;stroke-linejoin:miter;stroke-miterlimit:4;stroke-opacity:1;stroke-dasharray:none;stroke-dashoffset:0;marker:none;visibility:visible;display:block;overflow:visible"
       id="path14826"
       d="m 15.504442,121.96101 0.05485,-5.64498 1.90096,-2.79136 14.009422,0 2.044194,-2.02449 0.04419,-3.03364 -8.043116,-5.96133 8.110058,0.047 -0.1875,-3.989742 -8.9375,0" />
    <path
       inkscape:connector-curvature="0"
       style="color:#000000;fill:none;stroke:#305526;stroke-width:0.5;stroke-linecap:butt;stroke-linejoin:miter;stroke-miterlimit:4;stroke-opacity:1;stroke-dasharray:none;stroke-dashoffset:0;marker:none;visibility:visible;display:block;overflow:visible"
       id="path14842"
       d="m 19.5,121.96101 0.05485,-5.78068 1.900958,-2.66647" />
    <path
       inkscape:connector-curvature="0"
       style="color:#000000;fill:none;stroke:#305526;stroke-width:0.5;stroke-linecap:butt;stroke-linejoin:miter;stroke-miterlimit:4;stroke-opacity:1;stroke-dasharray:none;stroke-dashoffset:0;marker:none;visibility:visible;display:block;overflow:visible"
       id="path14844"
       d="m 22.5,121.96101 0.05485,-5.78068 1.900958,-2.66647" />
    <path
       inkscape:connector-curvature="0"
       style="color:#000000;fill:none;stroke:#305526;stroke-width:0.5;stroke-linecap:butt;stroke-linejoin:miter;stroke-miterlimit:4;stroke-opacity:1;stroke-dasharray:none;stroke-dashoffset:0;marker:none;visibility:visible;display:block;overflow:visible"
       id="path14846"
       d="m 25.544196,121.96101 0.05485,-5.78068 L 27.5,113.51386" />
    <path
       inkscape:connector-curvature="0"
       style="color:#000000;fill:url(#linearGradient7535);fill-opacity:1;fill-rule:nonzero;stroke:none;stroke-width:1;marker:none;visibility:visible;display:block;overflow:visible"
       id="path14796"
       d="M 15.71875,118.59375 C 15.153661,118.71798 15,119.25762 15,119.5 l 0,4.40625 2,0 0,-4.40625 c 0,-0.277 -0.200328,-0.90625 -1,-0.90625 -0.09801,0 -0.200523,-0.0178 -0.28125,0 z m 3,0 C 18.153661,118.71798 18,119.25762 18,119.5 l 0,4.40625 2,0 0,-4.40625 c 0,-0.277 -0.200328,-0.90625 -1,-0.90625 -0.09801,0 -0.200523,-0.0178 -0.28125,0 z m 3.03125,0 C 21.184911,118.71798 21,119.25762 21,119.5 l 0,4.40625 2,0 0,-4.40625 c 0,-0.277 -0.200328,-0.90625 -1,-0.90625 -0.09801,0 -0.169273,-0.0178 -0.25,0 z m 3,0 C 24.184911,118.71798 24,119.25762 24,119.5 l 0,4.40625 2,0 0,-4.40625 c 0,-0.277 -0.200328,-0.90625 -1,-0.90625 -0.09801,0 -0.169273,-0.0178 -0.25,0 z m 3,0 C 27.184911,118.71798 27,119.25762 27,119.5 l 0,4.40625 2,0 0,-4.40625 c 0,-0.277 -0.200328,-0.90625 -1,-0.90625 -0.09801,0 -0.169273,-0.0178 -0.25,0 z" />
    <path
       inkscape:connector-curvature="0"
       style="color:#000000;fill:none;stroke:#305526;stroke-width:0.5;stroke-linecap:butt;stroke-linejoin:miter;stroke-miterlimit:4;stroke-opacity:1;stroke-dasharray:none;stroke-dashoffset:0;marker:none;visibility:visible;display:block;overflow:visible"
       id="path14848"
       d="m 28.5,121.96101 0.05485,-5.78068 1.900958,-2.66647" />
    <path
       inkscape:connector-curvature="0"
       style="color:#000000;fill:none;stroke:#305526;stroke-width:0.5;stroke-linecap:butt;stroke-linejoin:miter;stroke-miterlimit:4;stroke-opacity:1;stroke-dasharray:none;stroke-dashoffset:0;marker:none;visibility:visible;display:block;overflow:visible"
       id="path15029"
       d="m 6.5,98.5 -2.96875,1.0625 0,1.875 0,10.0625 7,0.0625" />
    <rect
       style="color:#000000;fill:#555753;fill-opacity:1;fill-rule:nonzero;stroke:#2e3436;stroke-width:0.99999958;stroke-linecap:butt;stroke-linejoin:miter;stroke-miterlimit:4;stroke-opacity:1;stroke-dasharray:none;stroke-dashoffset:0;marker:none;visibility:visible;display:block;overflow:visible"
       id="rect14857"
       y="96.503517"
       x="7.4722195"
       ry="0.9419415"
       rx="0.94194132"
       height="7.9304557"
       width="16.055548" />
    <rect
       style="opacity:0.17045456;color:#000000;fill:none;stroke:url(#linearGradient7537);stroke-width:0.99999976;stroke-linecap:butt;stroke-linejoin:miter;stroke-miterlimit:4;stroke-opacity:1;stroke-dasharray:none;stroke-dashoffset:0;marker:none;visibility:visible;display:block;overflow:visible"
       id="rect14859"
       y="97.510818"
       x="8.416605"
       ry="0"
       rx="0"
       height="5.8817496"
       width="14.116029" />
    <path
       inkscape:connector-curvature="0"
       style="color:#000000;fill:none;stroke:#305526;stroke-width:0.5;stroke-linecap:butt;stroke-linejoin:miter;stroke-miterlimit:4;stroke-opacity:1;stroke-dasharray:none;stroke-dashoffset:0;marker:none;visibility:visible;display:block;overflow:visible"
       id="path15031"
       d="m 6.5,100.5 -2.984375,1.0625" />
    <path
       inkscape:connector-curvature="0"
       style="color:#000000;fill:#98a332;fill-opacity:1;stroke:#305526;stroke-width:0.5;stroke-linecap:butt;stroke-linejoin:miter;stroke-miterlimit:4;stroke-opacity:1;stroke-dasharray:none;stroke-dashoffset:0;marker:none;visibility:visible;display:block;overflow:visible"
       id="path15033"
       d="m 6.5,102.5 -3,1.5" />
    <path
       inkscape:connector-curvature="0"
       style="color:#000000;fill:url(#linearGradient7539);fill-opacity:1;fill-rule:nonzero;stroke:none;stroke-width:1;marker:none;visibility:visible;display:block;overflow:visible"
       id="rect14875"
       d="m 23,98 0,1 2,0 0,-1 -2,0 z m 0,2 0,1 2,0 0,-1 -2,0 z m 0,2 0,1 2,0 0,-1 -2,0 z" />
    <path
       inkscape:connector-curvature="0"
       style="color:#000000;fill:url(#linearGradient7541);fill-opacity:1;fill-rule:nonzero;stroke:none;stroke-width:1;marker:none;visibility:visible;display:block;overflow:visible"
       id="rect14901"
       d="m 9,95 0,2 1,0 0,-2 -1,0 z m 2,0 0,2 1,0 0,-2 -1,0 z m 2,0 0,2 1,0 0,-2 -1,0 z m 2,0 0,2 1,0 0,-2 -1,0 z m 2,0 0,2 1,0 0,-2 -1,0 z m 2,0 0,2 1,0 0,-2 -1,0 z m 2,0 0,2 1,0 0,-2 -1,0 z" />
    <path
       inkscape:connector-curvature="0"
       style="color:#000000;fill:none;stroke:#305526;stroke-width:0.5;stroke-linecap:butt;stroke-linejoin:miter;stroke-miterlimit:4;stroke-opacity:1;stroke-dasharray:none;stroke-dashoffset:0;marker:none;visibility:visible;display:block;overflow:visible"
       id="path14959"
       d="m 9.4575532,105.76 1.0606598,3.73911 1.944544,0 -1.06066,-3.73911" />
    <path
       inkscape:connector-curvature="0"
       style="color:#000000;fill:none;stroke:#305526;stroke-width:0.5;stroke-linecap:butt;stroke-linejoin:miter;stroke-miterlimit:4;stroke-opacity:1;stroke-dasharray:none;stroke-dashoffset:0;marker:none;visibility:visible;display:block;overflow:visible"
       id="path14961"
       d="m 13.457553,105.76 1.06066,3.73911 1.944544,0 -1.06066,-3.73911" />
    <path
       inkscape:connector-curvature="0"
       style="color:#000000;fill:none;stroke:#305526;stroke-width:0.5;stroke-linecap:butt;stroke-linejoin:miter;stroke-miterlimit:4;stroke-opacity:1;stroke-dasharray:none;stroke-dashoffset:0;marker:none;visibility:visible;display:block;overflow:visible"
       id="path14963"
       d="m 17.457553,105.86 1.06066,3.63911 1.944544,0 -1.06066,-3.63911" />
    <path
       inkscape:connector-curvature="0"
       style="color:#000000;fill:none;stroke:#305526;stroke-width:0.5;stroke-linecap:butt;stroke-linejoin:miter;stroke-miterlimit:4;stroke-opacity:1;stroke-dasharray:none;stroke-dashoffset:0;marker:none;visibility:visible;display:block;overflow:visible"
       id="path14965"
       d="m 21.457553,105.682 1.06066,3.81711" />
    <path
       inkscape:connector-curvature="0"
       style="color:#000000;fill:url(#linearGradient7543);fill-opacity:1;fill-rule:nonzero;stroke:none;stroke-width:1;marker:none;visibility:visible;display:block;overflow:visible"
       id="rect14929"
       d="m 9,104 0,2 1,0 0,-2 -1,0 z m 2,0 0,2 1,0 0,-2 -1,0 z m 2,0 0,2 1,0 0,-2 -1,0 z m 2,0 0,2 1,0 0,-2 -1,0 z m 2,0 0,2 1,0 0,-2 -1,0 z m 2,0 0,2 1,0 0,-2 -1,0 z m 2,0 0,2 1,0 0,-2 -1,0 z" />
    <path
       inkscape:connector-curvature="0"
       style="opacity:0.4;color:#000000;fill:none;stroke:url(#radialGradient7545);stroke-width:1.0000006;stroke-linecap:butt;stroke-linejoin:miter;stroke-miterlimit:4;stroke-opacity:1;stroke-dasharray:none;stroke-dashoffset:0;marker:none;visibility:visible;display:block;overflow:visible"
       id="path14989"
       d="m 2.5012312,118.50162 10.9981128,-6e-5 0.01105,4.98312 17.000996,-0.002 -0.0029,-4.98729 8.99151,0.003 c 0.004,-4.1e-4 0,-24.994112 0,-24.994112 l -36.9953427,-0.0022 c 0.00404,8.338622 -0.0035,25.000252 -0.0035,25.000252 l 7.39e-5,-1e-5 z" />
    <path
       inkscape:connector-curvature="0"
       style="color:#000000;fill:none;stroke:url(#linearGradient7547);stroke-width:3;stroke-linecap:square;stroke-linejoin:round;stroke-miterlimit:4;stroke-opacity:1;stroke-dasharray:none;stroke-dashoffset:0;marker:none;visibility:visible;display:block;overflow:visible"
       id="path15001"
       d="m 40.499689,125 0,-38.5 5.5,0" />
    <path
       inkscape:connector-curvature="0"
       style="color:#000000;fill:none;stroke:url(#linearGradient7549);stroke-width:2;stroke-linecap:square;stroke-linejoin:round;stroke-miterlimit:4;stroke-opacity:1;stroke-dasharray:none;stroke-dashoffset:0;marker:none;visibility:visible;display:block;overflow:visible"
       id="path15003"
       d="m 40.499689,125 0,-38.5 5.5,0" />
    <path
       inkscape:connector-curvature="0"
       style="color:#000000;fill:#477ec5;fill-opacity:1;fill-rule:nonzero;stroke:#334560;stroke-width:0.5;stroke-linecap:round;stroke-linejoin:round;stroke-miterlimit:4;stroke-opacity:1;stroke-dasharray:none;stroke-dashoffset:0;marker:none;visibility:visible;display:block;overflow:visible"
       id="path15005"
       d="m 35.485699,98.000007 a 1.4856964,1.4856964 0 1 1 -2.971392,0 1.4856964,1.4856964 0 1 1 2.971392,0 z" />
    <path
       inkscape:connector-curvature="0"
       style="color:#000000;fill:#477ec5;fill-opacity:1;fill-rule:nonzero;stroke:#334560;stroke-width:0.5;stroke-linecap:round;stroke-linejoin:round;stroke-miterlimit:4;stroke-opacity:1;stroke-dasharray:none;stroke-dashoffset:0;marker:none;visibility:visible;display:block;overflow:visible"
       id="path15007"
       d="m 35.485699,102.9857 a 1.4856964,1.4856964 0 1 1 -2.971392,0 1.4856964,1.4856964 0 1 1 2.971392,0 z" />
    <path
       inkscape:connector-curvature="0"
       style="color:#000000;fill:#477ec5;fill-opacity:1;fill-rule:nonzero;stroke:#334560;stroke-width:0.5;stroke-linecap:round;stroke-linejoin:round;stroke-miterlimit:4;stroke-opacity:1;stroke-dasharray:none;stroke-dashoffset:0;marker:none;visibility:visible;display:block;overflow:visible"
       id="path15009"
       d="m 35.485699,108.0143 a 1.4856964,1.4856964 0 1 1 -2.971392,0 1.4856964,1.4856964 0 1 1 2.971392,0 z" />
    <path
       inkscape:connector-curvature="0"
       style="opacity:0.45;fill:url(#radialGradient7551);fill-opacity:1;stroke:none"
       id="path2983"
       d="m 39,124.5 c 0,1.38071 -7.163442,2.5 -16,2.5 -8.836561,0 -16,-1.11929 -16,-2.5 0,-1.38071 7.163439,-2.5 16,-2.5 8.836558,0 16,1.11929 16,2.5 z" />
    <path
       inkscape:connector-curvature="0"
       style="opacity:0.4;fill:url(#linearGradient7553);fill-opacity:1;fill-rule:evenodd;stroke:none"
       id="path3996-9"
       d="m 43.00801,99.648016 0.04234,-11.736538 c 0.44614,-0.0578 0.0685,-0.0093 0.670099,-0.09587 0.0081,2.192268 0.01129,3.668835 0.01129,11.948444 0,0.06161 -0.259835,-0.03092 -0.723739,-0.116032 l 3e-6,0 z" />
    <path
       inkscape:connector-curvature="0"
       style="opacity:0.6;fill:url(#radialGradient7555);fill-opacity:1;stroke:none"
       id="path2716-1"
       d="m 44.090386,102.69346 c 0,2.09188 -1.848044,4.10118 -4.127723,4.48791 -2.279675,0.38673 -4.127719,-0.99556 -4.127719,-3.08743 0,-2.09188 1.848044,-4.101186 4.127719,-4.487917 2.279679,-0.38673 4.127723,0.995567 4.127723,3.087437 z" />
    <path
       inkscape:connector-curvature="0"
       style="opacity:0.6;fill:url(#radialGradient7557);fill-opacity:1;stroke:none"
       id="path2712-6"
       d="m 31.357535,104.67357 c 0,2.0233 -1.75516,3.96674 -3.92026,4.34079 -2.165102,0.37406 -3.920262,-0.96292 -3.920262,-2.98622 0,-2.0233 1.75516,-3.96674 3.920262,-4.3408 2.1651,-0.37405 3.92026,0.96293 3.92026,2.98623 z" />
    <path
       inkscape:connector-curvature="0"
       style="color:#000000;fill:url(#linearGradient7559);fill-opacity:1;fill-rule:nonzero;stroke:none;stroke-width:1;marker:none;visibility:visible;display:block;overflow:visible"
       id="rect14869"
       d="m 6,98 0,1 2,0 0,-1 -2,0 z m 0,2 0,1 2,0 0,-1 -2,0 z m 0,2 0,1 2,0 0,-1 -2,0 z" />
  </g>
</svg>
